<svg width="118" height="60" viewBox="0 0 118 60" fill="none" xmlns="http://www.w3.org/2000/svg">
<g clip-path="url(#clip0_2_58)">
<path d="M16.5275 26.3606C16.4587 26.6346 16.5202 26.9253 16.6943 27.1471C16.8676 27.3699 17.1343 27.5 17.4166 27.5C17.5642 27.5 17.7466 27.5678 17.929 27.666C16.4807 29.7441 16.6475 32.5949 18.4295 36.1598C18.5753 36.4504 18.8631 36.6429 19.1876 36.6649C19.5103 36.6851 19.8229 36.5357 20.0061 36.268C20.6377 35.3468 21.2564 34.6455 21.7863 34.1294C22.0366 35.609 23.0477 37.6632 25.9966 40.1208C26.1653 40.2619 26.3734 40.3335 26.5833 40.3335C26.7519 40.3335 26.9206 40.2876 27.071 40.1932C27.4064 39.9823 27.5687 39.5791 27.4725 39.1941C26.7685 36.3799 27.8905 35.6668 27.9097 35.6539C28.3626 35.4266 28.5468 34.8766 28.3204 34.4237C28.0939 33.9718 27.5439 33.7866 27.0902 34.014C27.0123 34.0524 25.6061 34.7886 25.4301 37.0665C22.8194 34.1918 23.6802 32.5922 23.6792 32.5922C23.9111 32.2448 23.8782 31.7846 23.6004 31.473C23.3217 31.1614 22.8698 31.0779 22.4976 31.2686C22.4288 31.3034 21.0639 32.0212 19.4515 33.9618C18.434 31.3721 18.5825 29.4683 19.8952 28.1684C20.2536 27.8127 20.2573 27.2344 19.9034 26.8741C19.8237 26.7925 19.314 26.2901 18.6119 25.9593C19.6266 23.8867 21.9449 23.8345 22.0512 23.8335C22.4225 23.8335 22.758 23.6089 22.8991 23.2643C23.0403 22.9195 22.9587 22.5246 22.6938 22.2642C22.2071 21.7839 21.7423 21.0295 21.7827 20.8149C22.0961 20.5015 22.9973 20.7682 23.4061 20.9781C23.6692 21.1166 23.9836 21.1184 24.2504 20.9836C24.5153 20.8479 24.6986 20.5921 24.7408 20.2971C24.8645 19.4318 25.3256 18.3336 25.6666 18.3336C26.3312 18.3336 26.6026 19.4382 26.6044 19.4427C26.6952 19.8653 27.0683 20.1669 27.5 20.1669H30.25C31.2647 20.1669 32.6168 21.7582 33.4244 22.7088C33.7168 23.0525 33.9735 23.3541 34.1853 23.5649C34.6702 24.0498 35.2588 24.1974 35.7308 24.3157C36.4504 24.4954 36.6667 24.5495 36.6667 25.6669C36.6667 26.5835 36.4027 26.5835 35.7006 26.5835C35.6199 26.5825 35.4915 26.5643 35.3293 26.545C34.2716 26.4241 32.3007 26.193 31.1109 27.2518C30.7186 27.602 30.2501 28.2464 30.2501 29.3335C30.2501 31.0514 31.7461 31.7709 33.0001 31.9982V33.5859C31.759 33.1303 29.7313 32.1944 28.1665 30.538C27.8191 30.1696 27.2389 30.153 26.8713 30.5004C26.5028 30.8478 26.4863 31.4281 26.8337 31.7966C29.6203 34.7473 33.5428 35.6878 33.7087 35.7263C33.9809 35.7886 34.2678 35.7254 34.4869 35.5512C34.706 35.3779 34.8335 35.113 34.8335 34.8334V31.1668C34.8335 30.6626 34.4238 30.2538 33.9195 30.2501C33.9012 30.2501 32.0835 30.1988 32.0835 29.3335C32.0835 28.8917 32.2238 28.7157 32.33 28.6221C32.9057 28.1088 34.4548 28.2894 35.1166 28.3664C35.3751 28.3967 35.5777 28.4168 35.6988 28.4168C37.5578 28.4168 38.5001 27.4919 38.5001 25.6668C38.5001 23.1175 37.0454 22.7536 36.1764 22.5364C35.8711 22.4603 35.608 22.3943 35.4815 22.2687C35.2982 22.0853 35.0764 21.8214 34.8216 21.5225C33.6785 20.1769 32.1128 18.3335 30.2501 18.3335H28.1601C27.7779 17.459 26.995 16.5001 25.6667 16.5001C24.222 16.5001 23.509 17.9072 23.179 18.9549C22.3008 18.7469 21.2384 18.7661 20.4867 19.5187C20.1375 19.8679 19.9541 20.319 19.956 20.8221C19.9578 21.3291 20.154 21.8332 20.4033 22.2714C18.8897 22.7453 17.1389 23.9149 16.5275 26.3606Z" fill="#e4e4e1"/>
<path d="M50.4166 0C48.9838 0 47.63 0.691152 46.7692 1.83337H8.23077C7.37 0.691152 6.01605 0 4.58337 0C2.05605 0 0 2.05605 0 4.58337C0 7.11058 2.05605 9.16674 4.58337 9.16674C6.01616 9.16674 7.37 8.47559 8.23077 7.33337H41.1739C41.6799 7.33337 42.0906 6.9227 42.0906 6.41674C42.0906 5.91078 41.6799 5.50011 41.1739 5.50011H7.74125C7.4149 5.50011 7.11337 5.67338 6.94923 5.95568C6.44692 6.81828 5.5623 7.33348 4.58326 7.33348C3.06711 7.33348 1.83326 6.09963 1.83326 4.58348C1.83326 3.06732 3.06711 1.83348 4.58326 1.83348C5.5623 1.83348 6.44682 2.34867 6.94923 3.21127C7.11326 3.49357 7.4149 3.66685 7.74125 3.66685H47.2588C47.5851 3.66685 47.8866 3.49357 48.0508 3.21127C48.5531 2.34867 49.4377 1.83348 50.4167 1.83348C51.9329 1.83348 53.1667 3.06732 53.1667 4.58348C53.1667 6.09963 51.9329 7.33348 50.4167 7.33348C49.4377 7.33348 48.5532 6.81828 48.0508 5.95568C47.8867 5.67338 47.5851 5.50011 47.2588 5.50011H44.9166C44.4107 5.50011 44 5.91078 44 6.41674V47.0278L28.4166 52.768V43.0834C28.4166 42.5774 28.006 42.1667 27.5 42.1667C26.994 42.1667 26.5834 42.5774 26.5834 43.0834V52.768L11 47.0278V10.0834C11 9.57741 10.5893 9.16674 10.0834 9.16674C9.57741 9.16674 9.16674 9.57741 9.16674 10.0834V47.6667C9.16674 48.0509 9.40597 48.3937 9.76626 48.5275L27.1829 54.9433C27.2856 54.9809 27.3928 55.0001 27.5001 55.0001C27.6074 55.0001 27.7146 54.9809 27.8173 54.9433L45.234 48.5275C45.5942 48.3937 45.8335 48.0509 45.8335 47.6667V7.33337H46.7694C47.6302 8.47559 48.9842 9.16674 50.4168 9.16674C52.9441 9.16674 55.0002 7.11068 55.0002 4.58337C55 2.05605 52.9439 0 50.4166 0Z" fill="#e4e4e1"/>
<path d="M31.1941 22.9166C31.1941 22.4107 30.7844 22 30.2775 22H30.2684C29.7624 22 29.3563 22.4107 29.3563 22.9166C29.3563 23.4226 29.7716 23.8333 30.2775 23.8333C30.7844 23.8334 31.1941 23.4227 31.1941 22.9166Z" fill="#e4e4e1"/>
<path d="M28.4166 13.75V10.0834C28.4166 9.57742 28.006 9.16675 27.5 9.16675C26.994 9.16675 26.5834 9.57742 26.5834 10.0834V13.75C26.5834 14.256 26.994 14.6666 27.5 14.6666C28.006 14.6666 28.4166 14.256 28.4166 13.75Z" fill="#e4e4e1"/>
</g>
<path d="M59.825 31.575C60.2417 32.2917 60.45 32.9833 60.45 33.65C60.45 33.8 60.4333 33.9333 60.4 34.05C60.3833 34.1833 60.3583 34.3167 60.325 34.45C60.0417 34.4167 59.7417 34.3917 59.425 34.375C59.125 34.3583 58.8083 34.35 58.475 34.35C58.075 34.35 57.6667 34.3583 57.25 34.375C56.85 34.4083 56.4 34.45 55.9 34.5C55.4 34.55 54.8417 34.6167 54.225 34.7C53.6083 34.7833 52.8917 34.8917 52.075 35.025C51.6917 34.8917 51.3083 34.625 50.925 34.225C50.5417 33.8417 50.1833 33.375 49.85 32.825C50.0167 32.4583 50.225 32.0083 50.475 31.475C50.725 30.925 51.0167 30.2667 51.35 29.5C51.6833 28.7167 52.05 27.8083 52.45 26.775C52.8667 25.725 53.3083 24.5167 53.775 23.15C54.075 22.25 54.3333 21.4583 54.55 20.775C54.7667 20.0917 54.9583 19.4333 55.125 18.8C55.3083 18.15 55.4833 17.475 55.65 16.775C55.8167 16.075 56 15.2667 56.2 14.35C56.8667 14.4833 57.4417 14.7333 57.925 15.1C58.425 15.45 58.9 15.9583 59.35 16.625C59.2167 16.8417 59.0417 17.1917 58.825 17.675C58.6083 18.1583 58.35 18.75 58.05 19.45C57.7667 20.1333 57.45 20.9167 57.1 21.8C56.75 22.6667 56.3833 23.6 56 24.6C55.6333 25.5833 55.275 26.5083 54.925 27.375C54.575 28.2417 54.2583 29.025 53.975 29.725C53.7083 30.425 53.4917 31.025 53.325 31.525C53.1583 32.025 53.075 32.4 53.075 32.65C53.3417 32.6333 53.5833 32.6167 53.8 32.6C54.0167 32.5833 54.2417 32.5583 54.475 32.525C54.7083 32.475 54.9583 32.425 55.225 32.375C55.5083 32.3083 55.8417 32.225 56.225 32.125C56.5583 32.0417 56.8667 31.975 57.15 31.925C57.4333 31.8583 57.7083 31.8083 57.975 31.775C58.2583 31.725 58.5417 31.6917 58.825 31.675C59.125 31.6417 59.4583 31.6083 59.825 31.575Z" fill="#e4e4e1"/>
<path d="M69.3393 34.6C68.9559 34.8 68.5476 34.9 68.1143 34.9C67.5809 34.8333 67.0643 34.7 66.5643 34.5C66.0809 34.3 65.7226 34.0583 65.4893 33.775C65.3559 32.9583 65.2476 32.2083 65.1643 31.525C65.0809 30.8417 65.0143 30.2 64.9643 29.6C64.9143 28.9833 64.8809 28.4 64.8643 27.85C64.8476 27.2833 64.8393 26.7167 64.8393 26.15C64.8393 25.4 64.8476 24.6083 64.8643 23.775C64.8809 22.9417 64.8976 22.0583 64.9143 21.125C64.9476 20.175 64.9726 19.1667 64.9893 18.1C65.0059 17.0167 65.0143 15.8417 65.0143 14.575C65.2309 14.575 65.5559 14.6417 65.9893 14.775C66.4226 14.8917 66.8476 15.0333 67.2643 15.2C67.6976 15.3667 68.0809 15.5417 68.4143 15.725C68.7476 15.8917 68.9309 16.0333 68.9643 16.15C68.7976 16.6167 68.6476 17.225 68.5143 17.975C68.3976 18.725 68.2976 19.5583 68.2143 20.475C68.1476 21.3917 68.0976 22.3583 68.0643 23.375C68.0309 24.3917 68.0143 25.4 68.0143 26.4C68.0143 27.15 68.0226 27.825 68.0393 28.425C68.0559 29.0083 68.0726 29.5417 68.0893 30.025C68.1226 30.4917 68.1643 30.9333 68.2143 31.35C68.2643 31.75 68.3226 32.15 68.3893 32.55C68.8559 31.1333 69.3643 29.7167 69.9143 28.3C70.4809 26.8833 71.0559 25.525 71.6393 24.225C72.2393 22.9083 72.8309 21.6833 73.4143 20.55C73.9976 19.4167 74.5476 18.4333 75.0643 17.6C75.5976 16.75 76.0726 16.0833 76.4893 15.6C76.9059 15.1 77.2476 14.8333 77.5143 14.8C77.6976 14.8333 77.8893 14.9083 78.0893 15.025C78.3059 15.125 78.5059 15.25 78.6893 15.4C78.8726 15.55 79.0393 15.7167 79.1893 15.9C79.3393 16.0833 79.4559 16.2667 79.5393 16.45C78.9226 16.6667 78.2559 17.175 77.5393 17.975C76.8393 18.775 76.1309 19.7417 75.4143 20.875C74.6976 21.9917 73.9976 23.2167 73.3143 24.55C72.6476 25.8667 72.0393 27.1583 71.4893 28.425C70.9559 29.6917 70.4976 30.875 70.1143 31.975C69.7309 33.075 69.4726 33.95 69.3393 34.6Z" fill="#e4e4e1"/>
<path d="M77.569 31.575C77.569 30.975 77.6606 30.2 77.844 29.25C78.044 28.2833 78.294 27.25 78.594 26.15C78.9106 25.0333 79.269 23.9 79.669 22.75C80.069 21.5833 80.4773 20.4917 80.8939 19.475C81.3106 18.4583 81.719 17.5667 82.119 16.8C82.519 16.0333 82.8773 15.4833 83.194 15.15C83.3606 15.1667 83.5773 15.2333 83.844 15.35C84.1273 15.45 84.4106 15.575 84.694 15.725C84.9773 15.875 85.2356 16.0417 85.469 16.225C85.7023 16.3917 85.8523 16.55 85.919 16.7C85.4356 17.1333 84.9523 17.7917 84.469 18.675C84.0023 19.5417 83.544 20.5333 83.094 21.65C82.6606 22.7667 82.2523 23.95 81.869 25.2C81.4856 26.4333 81.1523 27.6333 80.869 28.8C80.5856 29.9667 80.3606 31.05 80.194 32.05C80.044 33.05 79.969 33.8583 79.969 34.475C79.969 34.7583 79.994 34.9333 80.044 35C79.6773 34.9833 79.4106 34.9167 79.244 34.8C79.0773 34.7 78.944 34.5833 78.844 34.45C78.7606 34.3333 78.6773 34.2083 78.594 34.075C78.5273 33.9583 78.419 33.8667 78.269 33.8C78.1523 33.75 78.0523 33.6333 77.969 33.45C77.8856 33.2667 77.8106 33.0667 77.744 32.85C77.694 32.6167 77.6523 32.3833 77.619 32.15C77.5856 31.9167 77.569 31.725 77.569 31.575Z" fill="#e4e4e1"/>
<path d="M92.6547 34.6C92.2714 34.8 91.863 34.9 91.4297 34.9C90.8964 34.8333 90.3797 34.7 89.8797 34.5C89.3964 34.3 89.038 34.0583 88.8047 33.775C88.6714 32.9583 88.563 32.2083 88.4797 31.525C88.3964 30.8417 88.3297 30.2 88.2797 29.6C88.2297 28.9833 88.1964 28.4 88.1797 27.85C88.163 27.2833 88.1547 26.7167 88.1547 26.15C88.1547 25.4 88.163 24.6083 88.1797 23.775C88.1964 22.9417 88.213 22.0583 88.2297 21.125C88.263 20.175 88.288 19.1667 88.3047 18.1C88.3214 17.0167 88.3297 15.8417 88.3297 14.575C88.5464 14.575 88.8714 14.6417 89.3047 14.775C89.738 14.8917 90.163 15.0333 90.5797 15.2C91.013 15.3667 91.3964 15.5417 91.7297 15.725C92.063 15.8917 92.2464 16.0333 92.2797 16.15C92.113 16.6167 91.963 17.225 91.8297 17.975C91.713 18.725 91.613 19.5583 91.5297 20.475C91.463 21.3917 91.413 22.3583 91.3797 23.375C91.3464 24.3917 91.3297 25.4 91.3297 26.4C91.3297 27.15 91.338 27.825 91.3547 28.425C91.3714 29.0083 91.388 29.5417 91.4047 30.025C91.438 30.4917 91.4797 30.9333 91.5297 31.35C91.5797 31.75 91.638 32.15 91.7047 32.55C92.1714 31.1333 92.6797 29.7167 93.2297 28.3C93.7964 26.8833 94.3714 25.525 94.9547 24.225C95.5547 22.9083 96.1464 21.6833 96.7297 20.55C97.313 19.4167 97.863 18.4333 98.3797 17.6C98.913 16.75 99.388 16.0833 99.8047 15.6C100.221 15.1 100.563 14.8333 100.83 14.8C101.013 14.8333 101.205 14.9083 101.405 15.025C101.621 15.125 101.821 15.25 102.005 15.4C102.188 15.55 102.355 15.7167 102.505 15.9C102.655 16.0833 102.771 16.2667 102.855 16.45C102.238 16.6667 101.571 17.175 100.855 17.975C100.155 18.775 99.4464 19.7417 98.7297 20.875C98.013 21.9917 97.313 23.2167 96.6297 24.55C95.963 25.8667 95.3547 27.1583 94.8047 28.425C94.2714 29.6917 93.813 30.875 93.4297 31.975C93.0464 33.075 92.788 33.95 92.6547 34.6Z" fill="#e4e4e1"/>
<path d="M55.475 41.85C54.8083 41.85 54.2917 41.6667 53.925 41.3C53.575 40.9167 53.4 40.4583 53.4 39.925C53.4 39.7917 53.4167 39.6333 53.45 39.45C53.5 39.2667 53.5583 39.1083 53.625 38.975C53.8417 39.075 54.1583 39.15 54.575 39.2C55.0083 39.2333 55.5083 39.25 56.075 39.25C56.925 39.25 57.8833 39.2167 58.95 39.15C60.0333 39.0667 61.0667 38.9833 62.05 38.9C63.0333 38.8167 63.9 38.7417 64.65 38.675C65.4 38.5917 65.8833 38.55 66.1 38.55C66.7167 38.55 67.1583 38.7833 67.425 39.25C67.7083 39.7 67.9167 40.3083 68.05 41.075C67.6167 41.0417 67.1833 41.0167 66.75 41C66.3333 40.9667 65.975 40.95 65.675 40.95C65.1417 40.95 64.6 40.9667 64.05 41C63.5167 41.0333 62.975 41.0833 62.425 41.15C62.1917 41.6333 61.9333 42.2083 61.65 42.875C61.3667 43.525 61.0833 44.2083 60.8 44.925C60.5333 45.6417 60.275 46.3583 60.025 47.075C59.775 47.775 59.5583 48.4083 59.375 48.975C59.0083 50.075 58.6833 51.0917 58.4 52.025C58.1333 52.9583 57.8917 53.8333 57.675 54.65C57.475 55.45 57.3 56.2167 57.15 56.95C57 57.6833 56.8667 58.4 56.75 59.1C55.6333 58.9333 54.7 58.2333 53.95 57C54.0833 56.4833 54.2417 55.925 54.425 55.325C54.625 54.7083 54.85 54.0167 55.1 53.25C55.3667 52.4667 55.675 51.5833 56.025 50.6C56.375 49.6167 56.775 48.5 57.225 47.25C57.3917 46.7833 57.5667 46.3 57.75 45.8C57.9333 45.2833 58.1083 44.775 58.275 44.275C58.4583 43.775 58.6167 43.2917 58.75 42.825C58.9 42.3583 59.025 41.9333 59.125 41.55C58.425 41.6333 57.7583 41.7083 57.125 41.775C56.5083 41.825 55.9583 41.85 55.475 41.85Z" fill="#e4e4e1"/>
<path d="M76.7473 38.8C77.0639 38.9333 77.3889 39.1083 77.7223 39.325C78.0556 39.525 78.3639 39.7333 78.6473 39.95C78.9306 40.1667 79.1639 40.3833 79.3473 40.6C79.5473 40.8 79.6556 40.9667 79.6723 41.1C79.3889 41.0333 79.1056 40.9917 78.8223 40.975C78.5389 40.9417 78.2806 40.925 78.0473 40.925C77.2973 40.925 76.5473 41.1083 75.7973 41.475C75.0639 41.8417 74.3639 42.3417 73.6973 42.975C73.0306 43.6083 72.4139 44.35 71.8473 45.2C71.2806 46.05 70.7889 46.9583 70.3723 47.925C69.9723 48.8917 69.6556 49.8917 69.4223 50.925C69.1889 51.9583 69.0723 52.975 69.0723 53.975C69.0723 55.275 69.2889 56.2417 69.7223 56.875C70.1556 57.5083 70.7889 57.825 71.6223 57.825C72.0223 57.825 72.4556 57.7417 72.9223 57.575C73.3889 57.425 73.8639 57.2083 74.3473 56.925C74.8306 56.6417 75.3056 56.3 75.7723 55.9C76.2389 55.5 76.6723 55.0583 77.0723 54.575C77.6556 53.875 78.1806 53.0833 78.6473 52.2C79.1139 51.3 79.5056 50.35 79.8223 49.35C80.1556 48.35 80.4056 47.325 80.5723 46.275C80.7556 45.2083 80.8473 44.1667 80.8473 43.15C80.8473 42.75 80.8389 42.4167 80.8223 42.15C80.8056 41.8667 80.7806 41.6333 80.7473 41.45C80.7306 41.25 80.7139 41.0917 80.6973 40.975C80.6806 40.8583 80.6639 40.7583 80.6473 40.675C80.8473 40.775 81.0639 40.9 81.2973 41.05C81.5473 41.1833 81.7723 41.3917 81.9723 41.675C82.1889 41.9417 82.3639 42.3 82.4973 42.75C82.6473 43.2 82.7223 43.7833 82.7223 44.5C82.7223 45.6667 82.5806 46.8167 82.2973 47.95C82.0306 49.0667 81.6473 50.1333 81.1473 51.15C80.6639 52.1667 80.0889 53.1167 79.4223 54C78.7556 54.8833 78.0389 55.6583 77.2723 56.325C76.2723 57.2083 75.2056 57.8917 74.0723 58.375C72.9389 58.8583 71.8473 59.1 70.7973 59.1C69.2639 59.1 68.0889 58.6083 67.2723 57.625C66.4723 56.6583 66.0723 55.225 66.0723 53.325C66.0723 52.3083 66.1806 51.2333 66.3973 50.1C66.6306 48.9667 66.9473 47.85 67.3473 46.75C67.7639 45.65 68.2556 44.6083 68.8223 43.625C69.3889 42.625 70.0056 41.75 70.6723 41C71.3556 40.2333 72.0806 39.625 72.8473 39.175C73.6306 38.725 74.4306 38.5 75.2473 38.5C75.5139 38.5 75.7639 38.525 75.9973 38.575C76.2306 38.6083 76.4806 38.6833 76.7473 38.8Z" fill="#e4e4e1"/>
<path d="M92.8887 40.175C92.1553 41.1583 91.4887 42.2417 90.8887 43.425C90.2887 44.6083 89.772 45.825 89.3387 47.075C88.922 48.3083 88.597 49.5333 88.3637 50.75C88.147 51.95 88.0387 53.075 88.0387 54.125C88.0387 55.425 88.2303 56.3667 88.6137 56.95C88.997 57.5333 89.6553 57.825 90.5887 57.825C91.672 57.825 92.622 57.45 93.4387 56.7C94.2553 55.9333 95.022 54.8833 95.7387 53.55C96.2053 52.6833 96.6053 51.7333 96.9387 50.7C97.272 49.6667 97.5387 48.6083 97.7387 47.525C97.9553 46.425 98.1137 45.325 98.2137 44.225C98.3137 43.1083 98.3637 42.0417 98.3637 41.025C98.3637 40.375 98.3553 39.9 98.3387 39.6C98.322 39.3 98.297 39.0583 98.2637 38.875C98.3137 38.875 98.4387 38.8917 98.6387 38.925C98.8387 38.9583 99.0637 39 99.3137 39.05C99.5803 39.1 99.8387 39.1667 100.089 39.25C100.355 39.3333 100.58 39.425 100.764 39.525C100.68 40.7917 100.522 42.1 100.289 43.45C100.072 44.8 99.7803 46.1333 99.4137 47.45C99.047 48.7667 98.622 50.0333 98.1387 51.25C97.6553 52.4667 97.1137 53.5583 96.5137 54.525C95.6303 55.9583 94.6387 57.075 93.5387 57.875C92.4387 58.6917 91.1387 59.1 89.6387 59.1C88.1053 59.1 86.9137 58.65 86.0637 57.75C85.2137 56.8667 84.7887 55.5167 84.7887 53.7C84.7887 52.65 84.9053 51.4667 85.1387 50.15C85.372 48.8167 85.6803 47.4667 86.0637 46.1C86.4637 44.7167 86.922 43.375 87.4387 42.075C87.9553 40.7583 88.497 39.5833 89.0637 38.55C89.347 38.5667 89.6803 38.625 90.0637 38.725C90.447 38.825 90.822 38.9583 91.1887 39.125C91.5553 39.275 91.8887 39.45 92.1887 39.65C92.5053 39.8333 92.7387 40.0083 92.8887 40.175Z" fill="#e4e4e1"/>
<path d="M117.72 43.225C117.72 44.025 117.537 44.7833 117.17 45.5C116.82 46.2 116.329 46.8333 115.695 47.4C115.062 47.95 114.32 48.4167 113.47 48.8C112.62 49.1833 111.695 49.4417 110.695 49.575C110.945 50.325 111.245 51.1 111.595 51.9C111.962 52.6833 112.354 53.4417 112.77 54.175C113.187 54.9083 113.62 55.5833 114.07 56.2C114.52 56.8167 114.962 57.325 115.395 57.725C115.312 57.8917 115.187 58.0583 115.02 58.225C114.87 58.3917 114.687 58.5417 114.47 58.675C114.27 58.825 114.054 58.9417 113.82 59.025C113.604 59.125 113.395 59.175 113.195 59.175C112.829 59.175 112.479 59 112.145 58.65C111.812 58.3 111.47 57.75 111.12 57C110.787 56.2333 110.429 55.25 110.045 54.05C109.679 52.8333 109.27 51.375 108.82 49.675C108.637 49.675 108.454 49.675 108.27 49.675C108.087 49.675 107.945 49.6583 107.845 49.625C107.729 49.5583 107.604 49.4417 107.47 49.275C107.02 50.2417 106.62 51.15 106.27 52C105.92 52.85 105.604 53.675 105.32 54.475C105.054 55.2583 104.812 56.025 104.595 56.775C104.395 57.5083 104.22 58.2583 104.07 59.025C103.504 58.8917 103.012 58.65 102.595 58.3C102.179 57.95 101.787 57.4583 101.42 56.825C101.487 56.675 101.554 56.5333 101.62 56.4C101.704 56.25 101.804 56.05 101.92 55.8C102.037 55.5333 102.179 55.2 102.345 54.8C102.529 54.4 102.762 53.8667 103.045 53.2C103.345 52.5333 103.695 51.7167 104.095 50.75C104.512 49.7833 105.012 48.6083 105.595 47.225C105.862 46.6083 106.087 46.0667 106.27 45.6C106.47 45.1333 106.645 44.6917 106.795 44.275C106.945 43.8417 107.079 43.4167 107.195 43C107.329 42.5667 107.462 42.075 107.595 41.525C106.829 41.7917 106.112 42.0917 105.445 42.425C104.795 42.7417 104.254 43.0833 103.82 43.45C103.67 43.35 103.512 43.2 103.345 43C103.195 42.8 103.054 42.5833 102.92 42.35C102.787 42.1 102.67 41.85 102.57 41.6C102.47 41.35 102.412 41.125 102.395 40.925C102.895 40.5917 103.504 40.2833 104.22 40C104.954 39.7167 105.729 39.475 106.545 39.275C107.362 39.0583 108.195 38.8917 109.045 38.775C109.895 38.6583 110.687 38.6 111.42 38.6C113.42 38.6 114.97 39.0167 116.07 39.85C117.17 40.6667 117.72 41.7917 117.72 43.225ZM111.62 41.125C111.504 41.275 111.32 41.575 111.07 42.025C110.82 42.475 110.529 43.0167 110.195 43.65C109.879 44.2667 109.537 44.9417 109.17 45.675C108.82 46.4083 108.479 47.1333 108.145 47.85C109.395 47.85 110.545 47.7333 111.595 47.5C112.645 47.2667 113.554 46.9417 114.32 46.525C115.087 46.0917 115.679 45.5917 116.095 45.025C116.529 44.4417 116.745 43.8 116.745 43.1C116.745 42.2667 116.445 41.6333 115.845 41.2C115.245 40.75 114.32 40.525 113.07 40.525C112.787 40.525 112.504 40.5417 112.22 40.575C111.937 40.5917 111.637 40.6167 111.32 40.65L111.62 41.125Z" fill="#e4e4e1"/>
<defs>
<clipPath id="clip0_2_58">
<rect width="55" height="55" fill="white"/>
</clipPath>
</defs>
</svg>
